<?xml version="1.0" encoding="UTF-8"?>
<svg id="Capa_1" data-name="Capa 1" xmlns="http://www.w3.org/2000/svg" viewBox="0 0 605.10811 605.10811">
  <defs>
    <style>
      .cls-1 {
        fill: #fff;
        opacity: .22;
        stroke-width: 0px;
      }

      .cls-2 {
        fill: none;
        stroke: #04d9ff;
        stroke-linecap: round;
        stroke-linejoin: round;
        stroke-width: 4.06047px;
      }
    </style>
  </defs>
  <g>
    <path class="cls-1" d="m125.91586,396.28839c0-8.5845,2.09447-16.66478,5.73208-23.8285-10.23916,9.62342-16.66963,23.25178-16.66963,38.4122,0,29.13762,23.62071,52.75834,52.75834,52.75834,20.55312,0,38.31708-11.77815,47.02626-28.92984-9.43988,8.8724-22.11151,14.34614-36.08871,14.34614-29.13762,0-52.75834-23.62071-52.75834-52.75834Z"/>
    <path class="cls-1" d="m167.73665,358.11376c-13.9772,0-26.64883,5.47374-36.08871,14.34614-3.63761,7.16372-5.73208,15.244-5.73208,23.8285,0,29.13762,23.62071,52.75834,52.75834,52.75834,13.9772,0,26.64883-5.47374,36.08871-14.34614,3.63761-7.16372,5.73208-15.244,5.73208-23.8285,0-29.13762-23.62071-52.75834-52.75834-52.75834Z"/>
    <path class="cls-1" d="m167.73665,358.11376c-13.9772,0-26.64883,5.47374-36.08871,14.34614-3.63761,7.16372-5.73208,15.244-5.73208,23.8285,0,29.13762,23.62071,52.75834,52.75834,52.75834,13.9772,0,26.64883-5.47374,36.08871-14.34614,3.63761-7.16372,5.73208-15.244,5.73208-23.8285,0-29.13762-23.62071-52.75834-52.75834-52.75834Z"/>
  </g>
  <circle class="cls-2" cx="167.73663" cy="410.87208" r="52.75835"/>
  <polyline class="cls-2" points="128.05115 358.11373 128.05115 185.08923 167.92759 185.08923 167.92759 141.47768 331.15445 141.47768 331.15445 428.14693 230.76651 428.14693"/>
  <polyline class="cls-2" points="331.15445 194.79313 377.84325 194.79313 416.36152 155.48432 443.90791 155.48432"/>
  <line class="cls-2" x1="377.84325" y1="217.14186" x2="331.15445" y2="217.14186"/>
  <line class="cls-2" x1="437.83837" y1="239.49058" x2="331.15445" y2="239.49058"/>
  <polyline class="cls-2" points="331.15445 261.83931 413.79363 261.83931 437.83837 285.04575 471.4543 285.04575"/>
  <polyline class="cls-2" points="331.15445 284.18803 389.51545 284.18803 408.89131 306.53676 429.90127 306.53676"/>
  <line class="cls-2" x1="354.49885" y1="306.53676" x2="331.15445" y2="306.53676"/>
  <line class="cls-2" x1="465.38476" y1="328.88548" x2="331.15445" y2="328.88548"/>
  <polyline class="cls-2" points="331.15445 351.23421 377.84325 351.23421 398.2696 373.58293 445.77546 373.58293"/>
  <line class="cls-2" x1="354.49885" y1="373.58293" x2="331.15445" y2="373.58293"/>
  <polyline class="cls-2" points="331.15445 395.93166 432.46915 395.93166 451.84501 416.47473 468.18609 416.47473"/>
  <circle class="cls-2" cx="453.24567" cy="155.48432" r="9.33776"/>
  <circle class="cls-2" cx="387.18101" cy="217.14186" r="9.33776"/>
  <circle class="cls-2" cx="447.17613" cy="239.49058" r="9.33776"/>
  <circle class="cls-2" cx="480.79206" cy="285.04575" r="9.33776"/>
  <circle class="cls-2" cx="439.23903" cy="306.53676" r="9.33776"/>
  <circle class="cls-2" cx="474.95596" cy="328.88548" r="9.33776"/>
  <circle class="cls-2" cx="455.11322" cy="373.58293" r="9.33776"/>
  <circle class="cls-2" cx="477.52385" cy="415.54096" r="9.33776"/>
  <circle class="cls-2" cx="363.83661" cy="373.58293" r="9.33776"/>
  <circle class="cls-2" cx="363.83661" cy="306.53676" r="9.33776"/>
  <line class="cls-2" x1="128.05115" y1="185.08923" x2="167.92759" y2="141.47768"/>
  <line class="cls-2" x1="167.73663" y1="223.02746" x2="292.1693" y2="223.02746"/>
  <line class="cls-2" x1="167.73663" y1="243.57053" x2="292.1693" y2="243.57053"/>
  <line class="cls-2" x1="167.73663" y1="264.11361" x2="292.1693" y2="264.11361"/>
  <line class="cls-2" x1="167.73663" y1="284.65668" x2="292.1693" y2="284.65668"/>
  <line class="cls-2" x1="167.73663" y1="305.19975" x2="292.1693" y2="305.19975"/>
  <line class="cls-2" x1="167.73663" y1="325.74283" x2="253.33277" y2="325.74283"/>
  <polyline class="cls-2" points="137.23328 410.87208 157.15384 428.14693 195.1274 392.35218"/>
</svg>