<?xml version="1.0" encoding="UTF-8"?>
<svg id="Capa_1" data-name="Capa 1" xmlns="http://www.w3.org/2000/svg" viewBox="0 0 605.10811 605.10811">
  <defs>
    <style>
      .cls-1 {
        fill: #fff;
        opacity: .22;
        stroke-width: 0px;
      }

      .cls-2 {
        fill: none;
        stroke: #04d9ff;
        stroke-linecap: round;
        stroke-linejoin: round;
        stroke-width: 4.06047px;
      }
    </style>
  </defs>
  <path class="cls-2" d="m388.69307,125.41288c14.04828-7.91578,30.7652-11.32893,47.93038-8.62368,40.47584,6.37905,68.11675,44.36244,61.7377,84.83828-6.37905,40.47584-44.36244,68.11675-84.83828,61.7377-40.47584-6.37905-68.11675-44.36244-61.7377-84.83828"/>
  <g>
    <polygon class="cls-1" points="150.57015 112.51476 126.63868 112.51476 172.26539 175.76968 196.19663 175.76968 150.57015 112.51476"/>
    <polygon class="cls-1" points="219.81734 214.68149 238.76198 214.68149 262.86129 214.68149 256.71549 203.74394 205.45435 112.51476 150.57015 112.51476 196.19663 175.76968 172.26539 175.76968 180.15474 186.70723 160.32563 186.70723 135.55818 186.70723 250.69851 331.03828 238.3508 284.51348 219.81734 214.68149"/>
    <polygon class="cls-1" points="238.76198 214.68149 264.11543 216.50318 256.71549 203.74394 205.45435 112.51476 150.57015 112.51476 196.19663 175.76968 172.26539 175.76968 180.15474 186.70723 160.32563 186.70723 238.3508 284.51348 219.81734 214.68149 238.76198 214.68149"/>
  </g>
  <polygon class="cls-2" points="205.45438 112.51476 126.63878 112.51476 180.15474 186.70734 135.55811 186.70734 250.6985 331.03825 219.81734 214.68159 262.86121 214.68159 205.45438 112.51476"/>
  <polyline class="cls-2" points="165.55948 251.16974 165.55948 480.63967 426.65247 480.63967 426.65247 282.49027"/>
  <line class="cls-2" x1="236.91408" y1="143.32698" x2="380.90771" y2="143.32698"/>
  <line class="cls-2" x1="243.09846" y1="260.89991" x2="375.56906" y2="260.89991"/>
  <line class="cls-2" x1="178.53304" y1="365.9047" x2="412.86806" y2="365.9047"/>
  <line class="cls-2" x1="380.43415" y1="393.87895" x2="380.43415" y2="452.25999"/>
  <line class="cls-2" x1="348.00023" y1="393.87895" x2="348.00023" y2="452.25999"/>
  <line class="cls-2" x1="380.43415" y1="284.21179" x2="380.43415" y2="342.59283"/>
  <line class="cls-2" x1="295.70055" y1="172.92292" x2="295.70055" y2="231.30397"/>
  <line class="cls-2" x1="348.00023" y1="284.21179" x2="348.00023" y2="342.59283"/>
  <line class="cls-2" x1="315.56632" y1="393.87895" x2="315.56632" y2="452.25999"/>
  <line class="cls-2" x1="283.13241" y1="393.87895" x2="283.13241" y2="452.25999"/>
  <line class="cls-2" x1="250.6985" y1="393.87895" x2="250.6985" y2="452.25999"/>
  <line class="cls-2" x1="388.23293" y1="393.87895" x2="388.23293" y2="452.25999"/>
  <line class="cls-2" x1="355.79902" y1="393.87895" x2="355.79902" y2="452.25999"/>
  <line class="cls-2" x1="388.23293" y1="284.21179" x2="388.23293" y2="342.59283"/>
  <line class="cls-2" x1="303.49933" y1="172.92292" x2="303.49933" y2="231.30397"/>
  <line class="cls-2" x1="355.79902" y1="284.21179" x2="355.79902" y2="342.59283"/>
  <line class="cls-2" x1="323.3651" y1="393.87895" x2="323.3651" y2="452.25999"/>
  <line class="cls-2" x1="290.93119" y1="393.87895" x2="290.93119" y2="452.25999"/>
  <line class="cls-2" x1="258.49728" y1="393.87895" x2="258.49728" y2="452.25999"/>
  <polyline class="cls-2" points="410.57707 134.41669 387.54376 126.43785 395.5226 103.40455"/>
</svg>