<?xml version="1.0" encoding="UTF-8"?>
<svg id="Capa_1" data-name="Capa 1" xmlns="http://www.w3.org/2000/svg" viewBox="0 0 605.10811 605.10811">
  <defs>
    <style>
      .cls-1 {
        opacity: .47;
      }

      .cls-1, .cls-2, .cls-3, .cls-4 {
        fill: #fff;
        stroke-width: 0px;
      }

      .cls-5, .cls-2 {
        opacity: .22;
      }

      .cls-6 {
        fill: none;
        stroke: #04d9ff;
        stroke-linecap: round;
        stroke-linejoin: round;
        stroke-width: 4.06047px;
      }

      .cls-4 {
        opacity: .57;
      }
    </style>
  </defs>
  <polyline class="cls-6" points="332.43914 346.52619 332.43914 302.50163 398.66392 266.24739"/>
  <polyline class="cls-6" points="332.43914 302.50163 233.52343 248.16765 233.52343 325.10348"/>
  <polyline class="cls-6" points="389.19283 223.85296 332.69066 193.59654 233.52343 247.92848 332.43914 302.26247"/>
  <g class="cls-5">
    <polygon class="cls-4" points="188.87914 408.63383 162.26284 423.25405 162.26284 391.20202 188.87914 376.5818 188.87914 408.63383"/>
    <polygon class="cls-3" points="135.64653 408.63383 162.26284 423.25405 162.26284 391.20202 135.64653 376.5818 135.64653 408.63383"/>
  </g>
  <g class="cls-5">
    <polygon class="cls-4" points="397.91377 475.4734 350.93337 501.27954 350.93337 444.70455 397.91377 418.89841 397.91377 475.4734"/>
    <polygon class="cls-3" points="303.95297 475.4734 350.93337 501.27954 350.93337 444.70455 303.95297 418.89841 303.95297 475.4734"/>
  </g>
  <g class="cls-5">
    <polygon class="cls-4" points="273.65457 458.07591 241.76077 475.59505 241.76077 437.18771 273.65457 419.66858 273.65457 458.07591"/>
    <polygon class="cls-3" points="209.86696 458.07591 241.76077 475.59505 241.76077 437.18771 209.86696 419.66858 209.86696 458.07591"/>
  </g>
  <g>
    <polygon class="cls-6" points="189.07187 408.63383 162.0701 423.25405 162.0701 391.20202 189.07187 376.5818 189.07187 408.63383"/>
    <polygon class="cls-6" points="135.64653 408.63383 162.26284 423.25405 162.26284 391.20202 135.64653 376.5818 135.64653 408.63383"/>
    <polygon class="cls-6" points="135.64653 376.51744 162.26284 391.13767 188.94682 376.51799 162.33051 361.89777 135.64653 376.51744"/>
  </g>
  <g>
    <polygon class="cls-6" points="397.91377 475.4734 350.93337 501.27954 350.93337 444.70455 397.91377 418.89841 397.91377 475.4734"/>
    <polygon class="cls-6" points="303.95297 475.4734 350.93337 501.27954 350.93337 444.70455 303.95297 418.89841 303.95297 475.4734"/>
    <polygon class="cls-6" points="303.95297 418.78482 350.93337 444.59096 398.03323 418.78579 351.05283 392.97966 303.95297 418.78482"/>
  </g>
  <g>
    <polygon class="cls-6" points="273.88552 458.07591 241.52982 475.59505 241.52982 437.18771 273.88552 419.66858 273.88552 458.07591"/>
    <polygon class="cls-6" points="209.86696 458.07591 241.76077 475.59505 241.76077 437.18771 209.86696 419.66858 209.86696 458.07591"/>
    <polygon class="cls-6" points="209.86696 419.59147 241.76077 437.1106 273.73567 419.59213 241.84186 402.07299 209.86696 419.59147"/>
  </g>
  <path class="cls-6" d="m191.44305,347.04612c-55.67105-55.56287-55.75874-145.73578-.19587-201.40683,55.56287-55.67105,145.73578-55.75874,201.40683-.19587,55.67105,55.56287,55.75874,145.73578.19587,201.40683-52.09019,52.1916-134.59934,55.53066-190.58104,9.96178"/>
  <g>
    <path class="cls-1" d="m234.8169,304.35666c-40.08602-40.00822-42.81746-103.25806-8.18371-146.4523-4.32238,3.20889-8.46722,6.76708-12.38442,10.6919-42.88396,42.96753-42.81631,112.56403.15122,155.44822,42.96753,42.88396,112.56403,42.81631,155.44822-.15122,2.87597-2.88151,5.543-5.89115,8.03272-8.99615-42.99685,31.92101-104.02132,28.42654-143.06403-10.54045Z"/>
    <path class="cls-2" d="m369.69699,168.44503c-39.04271-38.96699-100.06695-42.46169-143.0638-10.54068-34.63376,43.19425-31.90231,106.44409,8.18371,146.4523,39.04271,38.96699,100.06718,42.46146,143.06403,10.54045,34.63376-43.19425,31.90231-106.44386-8.18394-146.45207Z"/>
  </g>
  <circle class="cls-6" cx="292.04853" cy="246.24477" r="109.91855"/>
  <path class="cls-6" d="m208.8928,246.3257c-.02071-21.28143,8.07718-42.57075,24.29857-58.82373"/>
  <polyline class="cls-6" points="441.41686 363.64479 522.4861 444.5565 490.80808 476.29619 402.04208 387.70267 433.72009 355.96298"/>
  <line class="cls-6" x1="408.74752" y1="378.27809" x2="385.95434" y2="355.5292"/>
  <line class="cls-6" x1="401.5154" y1="339.93785" x2="424.30858" y2="362.68674"/>
</svg>