<?xml version="1.0" encoding="UTF-8"?>
<svg id="Capa_1" data-name="Capa 1" xmlns="http://www.w3.org/2000/svg" viewBox="0 0 605.10811 605.10811">
  <defs>
    <style>
      .cls-1 {
        fill: #fff;
        opacity: .47;
        stroke-width: 0px;
      }

      .cls-2, .cls-3, .cls-4, .cls-5, .cls-6 {
        fill: none;
        stroke: #04d9ff;
        stroke-linecap: round;
        stroke-linejoin: round;
        stroke-width: 4.06047px;
      }

      .cls-3 {
        stroke-dasharray: 0 0 9.29005 18.5801;
      }

      .cls-4 {
        stroke-dasharray: 0 0 10.72234 21.44467;
      }

      .cls-5 {
        stroke-dasharray: 0 0 11.23203 22.46406;
      }

      .cls-6 {
        stroke-dasharray: 0 0 9.63226 19.26451;
      }
    </style>
  </defs>
  <polygon class="cls-1" points="149.45681 394.82003 187.80029 415.88193 187.80029 369.70775 149.45681 348.64584 149.45681 394.82003"/>
  <polygon class="cls-1" points="378.86685 394.82003 417.21033 415.88193 417.21033 369.70775 378.86685 348.64584 378.86685 394.82003"/>
  <polyline class="cls-1" points="264.01625 310.5761 264.01625 319.59863 302.35972 340.66054 302.35972 294.48636 264.01625 273.42445 264.01625 298.18625"/>
  <polygon class="cls-1" points="264.16183 193.71135 302.50531 214.77326 302.50531 168.59907 264.16183 147.53716 264.16183 193.71135"/>
  <polygon class="cls-1" points="264.16183 457.66286 302.50531 478.72477 302.50531 432.55058 264.16183 411.48867 264.16183 457.66286"/>
  <polygon class="cls-1" points="378.86685 256.70391 417.21033 277.76582 417.21033 231.59163 378.86685 210.52972 378.86685 256.70391"/>
  <polyline class="cls-1" points="187.80029 255.85416 187.80029 231.59163 149.45681 210.52972 149.45681 256.70391 187.80029 277.76582 187.80029 267.7278"/>
  <polygon class="cls-2" points="226.14376 394.82003 187.80029 415.88193 187.80029 369.70775 226.14376 348.64584 226.14376 394.82003"/>
  <polygon class="cls-2" points="149.45681 394.82003 187.80029 415.88193 187.80029 369.70775 149.45681 348.64584 149.45681 394.82003"/>
  <polygon class="cls-2" points="149.45681 348.55313 187.80029 369.61504 202.25904 361.69335 212.59315 356.03147 226.24126 348.55392 187.89778 327.49201 149.45681 348.55313"/>
  <polygon class="cls-2" points="455.5538 394.82003 417.21033 415.88193 417.21033 369.70775 455.5538 348.64584 455.5538 394.82003"/>
  <polygon class="cls-2" points="378.86685 394.82003 417.21033 415.88193 417.21033 369.70775 378.86685 348.64584 378.86685 394.82003"/>
  <polygon class="cls-2" points="378.86685 348.55313 417.21033 369.61504 430.32619 362.42909 439.43109 357.44069 455.6513 348.55392 417.30782 327.49201 378.86685 348.55313"/>
  <polygon class="cls-2" points="340.7032 319.59863 302.35972 340.66054 302.35972 294.48636 340.7032 273.42445 340.7032 319.59863"/>
  <polyline class="cls-2" points="264.01625 310.5761 264.01625 319.59863 302.35972 340.66054 302.35972 294.48636 264.01625 273.42445 264.01625 298.18625"/>
  <polygon class="cls-2" points="264.01625 273.33174 302.35972 294.39365 340.80069 273.33253 302.45722 252.27062 264.01625 273.33174"/>
  <polygon class="cls-2" points="340.84878 193.71135 302.50531 214.77326 302.50531 168.59907 340.84878 147.53716 340.84878 193.71135"/>
  <polygon class="cls-2" points="264.16183 193.71135 302.50531 214.77326 302.50531 168.59907 264.16183 147.53716 264.16183 193.71135"/>
  <polygon class="cls-2" points="264.16183 147.44445 302.50531 168.50636 340.94628 147.44525 302.6028 126.38334 264.16183 147.44445"/>
  <polyline class="cls-2" points="340.84878 445.31608 340.84878 457.66286 302.50531 478.72477 302.50531 432.55058 340.84878 411.48867 340.84878 433.95867"/>
  <polygon class="cls-2" points="264.16183 457.66286 302.50531 478.72477 302.50531 432.55058 264.16183 411.48867 264.16183 457.66286"/>
  <polygon class="cls-2" points="264.16183 411.39596 302.50531 432.45787 340.94628 411.39676 302.6028 390.33485 264.16183 411.39596"/>
  <g>
    <line class="cls-2" x1="395.3603" y1="381.40657" x2="390.66136" y2="383.98768"/>
    <line class="cls-3" x1="374.37633" y1="392.933" x2="358.09132" y2="401.87828"/>
    <line class="cls-2" x1="349.9488" y1="406.35093" x2="345.24986" y2="408.93202"/>
  </g>
  <g>
    <line class="cls-2" x1="416.91917" y1="277.76582" x2="416.91917" y2="283.12697"/>
    <line class="cls-5" x1="416.91917" y1="305.59105" x2="416.91917" y2="328.0551"/>
    <line class="cls-2" x1="416.91917" y1="339.28712" x2="416.91917" y2="344.6483"/>
  </g>
  <g>
    <line class="cls-2" x1="347.57707" y1="270.05089" x2="352.32432" y2="267.55977"/>
    <line class="cls-6" x1="369.38283" y1="258.60826" x2="386.44133" y2="249.65678"/>
    <line class="cls-2" x1="394.97056" y1="245.18104" x2="399.71782" y2="242.68989"/>
  </g>
  <polyline class="cls-4" points="302.40847 409.30689 302.40847 345.16263 302.40847 294.56795 263.99314 273.46657 208.97538 243.24555"/>
  <line class="cls-4" x1="208.77077" y1="381.02984" x2="261.16215" y2="409.8082"/>
  <line class="cls-4" x1="187.89778" y1="282.71632" x2="187.89778" y2="348.55353"/>
  <line class="cls-4" x1="279.58838" y1="181.15521" x2="187.89778" y2="231.39084"/>
  <polyline class="cls-4" points="417.21033 231.39321 375.5545 208.51184 324.14315 180.2718"/>
  <polyline class="cls-2" points="455.5538 210.52972 455.5538 256.70391 417.21033 277.76582 417.21033 231.59163"/>
  <polygon class="cls-2" points="378.86685 256.70391 417.21033 277.76582 417.21033 231.59163 378.86685 210.52972 378.86685 256.70391"/>
  <polyline class="cls-2" points="455.6513 210.43781 417.30782 189.3759 378.86685 210.43701 417.21033 231.49892 447.36889 214.97559"/>
  <polyline class="cls-2" points="187.80029 231.59163 226.14376 210.52972 226.14376 256.70391 187.80029 277.76582"/>
  <polyline class="cls-2" points="187.80029 255.85416 187.80029 231.59163 149.45681 210.52972 149.45681 256.70391 187.80029 277.76582 187.80029 267.7278"/>
  <polygon class="cls-2" points="149.45681 210.43701 187.80029 231.49892 226.24126 210.43781 187.89778 189.3759 156.29253 206.69184 149.45681 210.43701"/>
</svg>