<?xml version="1.0" encoding="UTF-8"?>
<svg id="Capa_1" data-name="Capa 1" xmlns="http://www.w3.org/2000/svg" viewBox="0 0 605.10811 605.10811">
  <defs>
    <style>
      .cls-1, .cls-2, .cls-3, .cls-4 {
        fill: #fff;
        stroke-width: 0px;
      }

      .cls-1, .cls-5 {
        opacity: .4;
      }

      .cls-2 {
        opacity: .22;
      }

      .cls-6 {
        fill: none;
        stroke: #04d9ff;
        stroke-linecap: round;
        stroke-linejoin: round;
        stroke-width: 4.06047px;
      }

      .cls-4 {
        opacity: .6;
      }
    </style>
  </defs>
  <g>
    <polygon class="cls-6" points="449.318 395.03201 478.38313 410.99736 478.38313 375.9964 449.318 360.03105 449.318 395.03201"/>
    <polygon class="cls-6" points="507.44826 395.03201 478.38313 410.99736 478.38313 375.9964 507.44826 360.03105 507.44826 395.03201"/>
    <polygon class="cls-6" points="507.44826 359.96077 478.38313 375.92612 449.2441 359.96137 478.30922 343.99602 507.44826 359.96077"/>
  </g>
  <g>
    <polygon class="cls-6" points="350.83285 484.48293 385.66103 503.6139 385.66103 461.67292 350.83285 442.54195 350.83285 484.48293"/>
    <polygon class="cls-6" points="420.48922 484.48293 385.66103 503.6139 385.66103 461.67292 420.48922 442.54195 420.48922 484.48293"/>
    <polygon class="cls-6" points="420.48922 442.45773 385.66103 461.58871 350.74429 442.45846 385.57247 423.32748 420.48922 442.45773"/>
  </g>
  <path class="cls-6" d="m403.28936,362.1356l21.17542,54.55798-69.07981-32.86635c-18.17692,9.66203-38.91913,15.13639-60.93994,15.13639-71.80792,0-130.01974-58.21182-130.01974-130.01974s58.21182-130.01974,130.01974-130.01974c35.90394,0,68.40887,14.55294,91.93781,38.08187"/>
  <path class="cls-6" d="m397.21337,189.28593c17.08164,22.00544,27.25141,49.64405,27.25141,79.65795,0,29.69184-9.95269,57.0591-26.70393,78.94763"/>
  <path class="cls-6" d="m136.0892,214.37193c22.63219-65.68635,84.98294-112.87773,158.35583-112.87773,79.05443,0,145.31366,54.78276,162.88554,128.45612"/>
  <path class="cls-6" d="m260.69811,432.99157c-59.4682-12.16894-107.45335-55.86177-125.73328-112.85632"/>
  <g class="cls-5">
    <path class="cls-3" d="m106.40995,259.92494c0-5.29366.79743-10.3412,2.18959-15.02167-6.7119,7.82724-10.93962,18.99151-10.93962,31.4281,0,23.66389,15.21444,42.84725,33.98247,42.84725,11.37713,0,15.09647-7.07483,16.2753-17.89879-2.04483.94219-4.48838,1.49235-7.52526,1.49235-18.76802,0-33.98247-19.18336-33.98247-42.84725Z"/>
    <path class="cls-3" d="m465.99793,302.77219c-18.76802,0-16.74489-19.18336-16.74489-42.84725,0-9.31891-.29621-17.91726.46959-24.94869-10.59216,4.88086-9.21986,21.52001-9.21986,41.35512,0,23.66389-2.0229,42.84725,16.74512,42.84725,14.56939,0,26.96143-11.58214,31.79265-27.82512-6.05923,7.06606-14.13835,11.41868-23.04261,11.41868Z"/>
    <path class="cls-4" d="m148.38727,276.33137c0-23.66412,2.0229-42.84748-16.74489-42.84748-8.90449,0-16.98361,4.35285-23.04284,11.41938-1.39216,4.68046-2.18959,9.72801-2.18959,15.02167,0,23.66389,15.21444,42.84725,33.98247,42.84725,3.03689,0,5.48043-.55017,7.52526-1.49235.7658-7.0312.46959-15.62978.46959-24.94846Z"/>
    <path class="cls-4" d="m449.25303,259.92494c0,23.66389-2.02313,42.84725,16.74489,42.84725,8.90426,0,16.98338-4.35262,23.04261-11.41868,1.39216-4.68069,2.18959-9.72847,2.18959-15.02213,0-23.66412-15.21444-42.84748-33.98224-42.84748-3.03689,0-5.48043.55017-7.52526,1.49235-.7658,7.03143-.46959,15.62978-.46959,24.94869Z"/>
  </g>
  <rect class="cls-1" x="260.9551" y="418.66358" width="63.03988" height="36.44493" rx="13.48975" ry="13.48975"/>
  <circle class="cls-2" cx="248.64262" cy="276.33136" r="12.31248"/>
  <circle class="cls-2" cx="292.96753" cy="276.33136" r="12.31248"/>
  <circle class="cls-2" cx="337.29245" cy="276.33136" r="12.31248"/>
  <g>
    <path class="cls-6" d="m148.38725,276.33136c0,23.66397,2.02301,42.84742-16.74497,42.84742s-33.98243-19.18344-33.98243-42.84742,15.21445-42.84742,33.98243-42.84742,16.74497,19.18344,16.74497,42.84742Z"/>
    <path class="cls-6" d="m440.50281,276.33136c0-23.66397-2.02301-42.84742,16.74497-42.84742,18.76798,0,33.98243,19.18344,33.98243,42.84742,0,23.66397-15.21445,42.84742-33.98243,42.84742-18.76798,0-16.74497-19.18344-16.74497-42.84742Z"/>
  </g>
  <rect class="cls-6" x="260.9551" y="418.66358" width="63.03988" height="36.44493" rx="13.48975" ry="13.48975"/>
  <circle class="cls-6" cx="248.64262" cy="276.33136" r="12.31248"/>
  <circle class="cls-6" cx="292.96753" cy="276.33136" r="12.31248"/>
  <circle class="cls-6" cx="337.29245" cy="276.33136" r="12.31248"/>
</svg>