<?xml version="1.0"?>
<svg id="Capa_1" data-name="Capa 1" xmlns="http://www.w3.org/2000/svg" viewBox="0 0 566.92913 566.92913">
  <defs>
    
  </defs>
  <rect class="cls-3" x="-13.18311" y="-13.21013" width="593.3494" height="593.3494"></rect>
  <g>
    <g class="cls-2">
      <path class="cls-4" d="m442.8253,237.88459c-6.81204,16.53142-21.5161,43.11484-51.00687,63.30149-28.49393,19.43877-58.23417,24.00818-79.6666,24.09134,21.43244-7.72622,49.84372-23.01135,71.52562-53.25,7.55941-10.46726,13.62407-21.84821,18.10983-33.81072,13.45776-2.07682,27.4971-2.15998,41.03802-.33211Z"></path>
    </g>
    <g class="cls-2">
      <path class="cls-4" d="m364.07238,205.0707c12.12832-6.72888,25.50293-11.79621,39.04384-14.70406-.49842,13.95618-3.07366,27.4971-7.55941,40.45645-12.79304,2.32628-25.08817,6.39677-36.63491,11.96251-.16631.08315-.24946.16631-.41577.24946l5.56625-37.96436Z"></path>
    </g>
    <g class="cls-1">
      <path class="cls-4" d="m362.49398,250.26237c9.38728-4.48575,19.35561-7.97518,29.65708-10.2178-3.98784,9.55308-9.13832,18.6914-15.20248,27.16448-20.76822,28.9097-48.18217,43.44746-68.20301,50.50845,16.033-13.12566,34.7244-33.64441,45.85639-63.30149,2.57524-1.4121,5.15048-2.8247,7.89202-4.15364Z"></path>
    </g>
    <g class="cls-1">
      <path class="cls-4" d="m332.00587,229.49415c7.14465-7.31045,14.95352-13.78987,23.50977-19.27297-.49842,10.2178-2.15998,20.35296-4.98417,30.15549-.74788,2.8247-1.66156,5.64889-2.57524,8.30729-9.38728,5.48259-18.10983,12.12882-26.085,19.77138,2.57524-10.55042,3.90418-21.26664,4.07049-32.23232v-.08315c1.91051-2.24262,3.90469-4.4026,6.06416-6.64573Z"></path>
    </g>
    <g class="cls-2">
      <path class="cls-4" d="m355.68194,200.33549c-10.88253,6.31362-20.76822,14.20564-29.57392,23.34346l-.49842.49842c0-.33211-.08315-.58157-.08315-.91368-.91368-12.71039-3.57207-25.25397-7.89202-37.29964,8.97201-10.38411,19.43928-19.35612,31.23548-26.74973,4.2368,13.37512,6.56257,27.16499,6.81204,41.12117Z"></path>
    </g>
    <path class="cls-4" d="m342.30733,262.30803c-10.21831,21.43294-24.5066,36.96753-37.30015,47.68375,3.82153-6.56257,7.72572-14.20564,11.04883-23.17715v-.08315c7.80887-9.38728,16.61457-17.52825,26.25131-24.42345Z"></path>
    <g class="cls-1">
      <path class="cls-4" d="m317.30231,223.84525c.24895,3.15681.33211,6.31362.33211,9.38728-6.89519,8.39044-12.87619,17.61141-17.69456,27.4971-1.24579-11.29779-3.82153-22.34662-7.55941-32.98019.83053-2.49208,1.82736-4.90102,2.9905-7.3931,4.31995-9.47043,9.63623-18.44244,16.11616-26.74973,3.07366,9.88569,4.98417,20.02085,5.8152,30.23865Z"></path>
    </g>
    <path class="cls-4" d="m316.9697,247.93608c-1.16263,11.71356-3.90418,23.17766-8.05783,34.39229v.08315c-3.48892,4.15364-6.47993,8.30729-9.05517,12.29462.49842-4.56891.91419-9.38728.99683-14.6204v-.08315c3.98784-11.54725,9.38728-22.26347,16.11616-32.06651Z"></path>
    <g class="cls-2">
      <path class="cls-4" d="m308.16399,184.21933v.08315c-8.14098,9.88569-14.95302,20.76822-20.2698,32.39862-4.98417-11.2983-11.71305-22.01451-20.02034-32.06651l10.13465-21.76505c0-.08315.08315-.08315.08315-.1658,0,0,0-.08315.08315-.08315,2.90735-4.98468,6.14731-9.71938,9.80254-14.2888,8.55675,10.96568,15.36879,23.01135,20.18665,35.88754Z"></path>
    </g>
    <path class="cls-4" d="m287.97735,241.53982c3.15681,11.96251,4.73521,24.34029,4.56891,36.88438-1.99367,5.8152-3.57207,11.38094-4.81786,16.69773-1.16314-5.48309-2.65839-10.96568-4.48626-16.19931-.1658-12.79355,1.4126-25.33713,4.73521-37.38279Z"></path>
    <g class="cls-1">
      <path class="cls-4" d="m280.41794,220.35633c1.16263,2.49208,2.15998,4.98417,3.07366,7.47625-3.82153,10.71673-6.39677,21.93136-7.64256,33.39546-4.81837-9.96885-10.71673-19.18981-17.69456-27.66341,0-3.15681.1658-6.31362.41526-9.63623.83053-10.30096,2.74155-20.43611,5.8152-30.3218,6.56257,8.4736,11.79621,17.2793,16.033,26.74973Z"></path>
    </g>
    <path class="cls-4" d="m259.81552,286.73148c3.32312,8.88886,7.2273,16.61457,10.96568,23.17715-12.37778-10.38411-27.08184-26.2508-37.38279-48.09901,9.71989,7.06099,18.5256,15.28512,26.33447,24.83871l.08265.08315Z"></path>
    <g class="cls-1">
      <path class="cls-4" d="m267.20913,317.88381c-19.93719-7.0615-47.7669-21.59925-68.70143-50.67476-6.23047-8.6394-11.38094-18.02667-15.45143-28.07867,10.30096,2.32628,20.18665,5.73205,29.49077,10.21831,2.8247,1.4121,5.6494,2.82419,8.30729,4.4026,11.21514,30.3218,30.65391,51.17317,46.35481,64.13252Z"></path>
    </g>
    <path class="cls-4" d="m274.93484,280.83312c.16631,4.90152.49842,9.55358.99683,13.95618-2.57524-3.98734-5.56574-8.14098-8.88886-12.29462l-.08265-.08315c-4.15364-11.21464-6.81204-22.59558-8.05833-34.05968,6.64573,9.88569,12.04567,20.60191,16.033,32.06601v.41526Z"></path>
    <g class="cls-2">
      <path class="cls-4" d="m260.5634,324.19743c-20.85137-.33262-49.76057-5.23363-77.34083-24.00818-29.32497-20.02085-44.11168-46.68691-51.00687-63.30149,13.62407-1.82787,27.66341-1.74471,41.20433.41526,4.48575,12.46093,10.71622,24.17398,18.35878,34.7244,20.76822,28.99235,48.01636,44.27798,68.78458,52.17001Z"></path>
    </g>
    <g class="cls-2">
      <path class="cls-4" d="m258.23712,185.96404c-4.31944,12.12832-6.97784,24.6724-7.89152,37.29964,0,.41526-.08315.91368-.08315,1.32894-.24946-.33211-.49842-.58106-.83103-.91368-8.72255-8.97201-18.52509-16.78038-29.32446-23.094.16631-13.87353,2.49208-27.74656,6.81204-41.37064,11.79621,7.39361,22.34662,16.36562,31.31813,26.74973Z"></path>
    </g>
    <g class="cls-1">
      <path class="cls-4" d="m253.91767,268.20588c-7.97518-7.80887-16.78088-14.4546-26.25131-20.02034-.91368-2.49208-1.66105-5.15048-2.40893-7.80887-2.8247-9.71938-4.48575-19.77138-4.98417-29.98919,8.47309,5.48259,16.1988,11.96251,23.2603,19.10666,2.15998,2.24313,4.31944,4.56891,6.31362,7.14415l.08265.08315c.08315,10.55042,1.49576,21.10033,3.98784,31.48444Z"></path>
    </g>
    <g class="cls-2">
      <path class="cls-4" d="m216.11961,241.87192c-11.38145-5.56574-23.59292-9.55308-36.38596-11.87936-5.23363-15.36828-6.97834-29.32446-7.39361-39.62592,10.46726,2.15998,24.5066,6.56308,39.37646,14.95352.24946,12.62673,2.07682,25.00451,5.39994,37.05018-.33262-.1658-.66472-.33211-.99683-.49842Z"></path>
    </g>
    <g>
      <path class="cls-4" d="m109.67603,355.14886l2.45398,6.96059h-.65562c-6.36216-6.33612-13.85327-9.50392-22.47486-9.50392-8.94889,0-16.1801,2.6623-21.69465,7.98691-5.51455,5.32512-8.27183,11.76489-8.27183,19.31982,0,4.67052,1.22699,10.03955,3.68096,16.1076,2.45398,6.06856,6.32846,11.05872,11.62345,14.96997,5.29448,3.91176,11.70464,5.86738,19.23098,5.86738,4.93706,0,9.77863-.79553,14.52318-2.38709,4.74456-1.59105,8.27693-3.7259,10.59713-6.40301l.58005.17871-4.59546,7.04944c-7.43699,1.60637-12.26324,2.55814-14.47927,2.85582-2.21603.29717-5.18317.44627-8.90141.44627-13.77259,0-23.62577-3.19027-29.56004-9.57081-5.93427-6.38054-8.90192-14.01768-8.90192-22.91194,0-6.00831,1.52416-11.78633,4.5735-17.33458,3.04883-5.54774,7.44413-9.92007,13.18539-13.11799,5.74024-3.19742,12.29949-4.79664,19.67674-4.79664,3.68811,0,6.87838.33445,9.57081,1.00385,2.69192.66941,4.93042,1.36077,6.7155,2.07459l2.94467,1.11568c.08936.03013.14859.05974.17871.08936Z"></path>
      <path class="cls-4" d="m158.62329,350.86538c9.22053,0,16.76117,2.80374,22.62192,8.41071,5.85972,5.60748,8.78958,12.60484,8.78958,20.99308,0,10.7978-3.39094,19.88558-10.17282,27.26231-6.78239,7.37776-15.78081,11.06587-26.99475,11.06587-9.10258,0-16.55387-2.97428-22.35436-8.92387-5.80049-5.94908-8.70074-13.08787-8.70074-21.41739,0-5.62178,1.39804-11.39266,4.19412-17.31212,2.79608-5.91895,7.00552-10.74572,12.6273-14.47876,5.62229-3.73305,12.2852-5.59982,19.98974-5.59982Zm-.26807,64.25167c4.52142,0,8.9831-1.21167,13.38606-3.63654,4.40194-2.42385,7.86743-5.76271,10.39595-10.01708,2.52801-4.25335,3.79279-8.62619,3.79279-13.11799,0-6.36522-1.70338-12.15091-5.10913-17.35705-3.40626-5.20512-7.82351-9.28079-13.25177-12.22545-5.42877-2.94467-10.44854-4.41726-15.05881-4.41726-6.51432,0-12.42663,2.45398-17.73643,7.36193-5.30929,4.90846-7.96444,11.00664-7.96444,18.29401,0,9.31091,3.24184,17.49083,9.72706,24.54078,6.4847,7.04944,13.75727,10.57466,21.81873,10.57466Z"></path>
      <path class="cls-4" d="m196.54962,352.51617v-.66941h30.16255c7.67442,0,13.73532.60252,18.18219,1.80704,4.44687,1.20503,8.32187,3.10142,11.62345,5.68918,3.30209,2.58775,5.91895,5.89751,7.85313,9.92772,1.93316,4.03124,2.90025,8.53019,2.90025,13.49738,0,4.78949-1.00385,9.49677-3.01207,14.12185-2.00771,4.6261-4.7369,8.61138-8.18758,11.9579-3.45068,3.34652-7.08722,5.63761-10.90911,6.87174-3.82291,1.23465-9.73472,1.85146-17.73643,1.85146h-30.87638v-.66941h.80318c1.60637,0,2.66179-.64592,3.1678-1.93928.5055-1.29286.75876-3.63399.75876-7.02288v-47.84333c0-3.5671-.30534-5.72186-.91501-6.4653-.60966-.74293-1.88159-1.11465-3.81474-1.11465Zm22.39878.71383h-10.08397v50.9999c0,3.21274.54226,5.59982,1.62884,7.16126,1.08555,1.56195,2.93701,2.69243,5.55489,3.39094,2.61737.69953,6.14209,1.04879,10.57466,1.04879,12.31532,0,20.96347-3.16014,25.94648-9.48145,4.98199-6.3208,7.47324-13.2145,7.47324-20.6811,0-8.77477-3.41289-16.37515-10.23971-22.80063-6.82681-6.42496-17.11145-9.6377-30.85443-9.6377Z"></path>
      <path class="cls-4" d="m273.82125,352.60552v-.75876h41.73035v9.05765h-.67604c-.90122-3.36081-1.66049-5.3389-2.27577-5.93427-.61579-.59435-2.12566-.89203-4.52908-.89203h-21.90145v29.49315h20.32419c2.0123,0,3.28984-.18535,3.83057-.55758.54073-.37172.82616-.91501.85629-1.62884h.67604v6.20183h-.67604c-.15063-.86241-.50346-1.44246-1.059-1.74015-.55605-.29666-1.58492-.44576-3.08713-.44576h-20.86492v20.30172c0,3.06415.28441,5.27252.85476,6.62563.57035,1.35413,1.4777,2.20174,2.72255,2.54333,1.24537.34262,3.12747.51316,5.64833.51316h11.70055c3.72028,0,6.09715-.12561,7.13266-.37632,1.035-.25122,1.91222-.75366,2.63269-1.50731.71944-.75366,1.27498-2.40138,1.66509-4.94318h.67604v9.01323h-45.38067v-.66941c1.53182-.08936,2.696-.37836,3.49255-.86905.79553-.49018,1.19431-1.76108,1.19431-3.81219v-53.06071c0-2.40751-.21088-4.1017-.63111-5.08258-.42125-.98088-1.77283-1.47157-4.05575-1.47157Z"></path>
      <path class="cls-4" d="m386.59485,407.26392v10.30711h-62.95627l51.58148-63.22535h-34.54203c-2.85582,0-4.81757.36457-5.88474,1.09321-1.06717.72915-1.81112,2.52086-2.23186,5.37669h-.67604l.36049-8.96881h54.61908l-51.7316,63.27029h44.02655c2.55303,0,4.27276-.52031,5.15917-1.56195.8859-1.04062,1.41949-3.13768,1.59973-6.29118h.67604Z"></path>
      <path class="cls-4" d="m394.72626,352.60552v-.75876h41.73035v9.05765h-.67604c-.90122-3.36081-1.66049-5.3389-2.27577-5.93427-.61579-.59435-2.12566-.89203-4.52908-.89203h-21.90145v29.49315h20.32419c2.0123,0,3.28984-.18535,3.83057-.55758.54073-.37172.82616-.91501.85629-1.62884h.67604v6.20183h-.67604c-.15063-.86241-.50346-1.44246-1.059-1.74015-.55605-.29666-1.58492-.44576-3.08713-.44576h-20.86492v20.30172c0,3.06415.28441,5.27252.85476,6.62563.57035,1.35413,1.4777,2.20174,2.72255,2.54333,1.24537.34262,3.12747.51316,5.64833.51316h11.70055c3.72028,0,6.09715-.12561,7.13266-.37632,1.035-.25122,1.91222-.75366,2.63269-1.50731.71944-.75366,1.27498-2.40138,1.66509-4.94318h.67604v9.01323h-45.38067v-.66941c1.53182-.08936,2.696-.37836,3.49255-.86905.79553-.49018,1.19431-1.76108,1.19431-3.81219v-53.06071c0-2.40751-.21088-4.1017-.63111-5.08258-.42125-.98088-1.77283-1.47157-4.05575-1.47157Z"></path>
      <path class="cls-4" d="m501.38228,351.84676h12.71615v.66941c-1.93367.05974-3.27248.46874-4.01541,1.22699-.74395.75876-1.11568,2.35798-1.11568,4.79664v59.83442l-52.42756-55.82513v48.60107c0,1.54561.11846,2.68937.35691,3.43281.23794.74293.58005,1.24843,1.02632,1.5165.44627.26756,1.56144.53461,3.34652.80216v.66941h-12.6273v-.66941c2.25994,0,3.66564-.40083,4.21659-1.20401.54992-.80216.82514-2.71949.82514-5.75147v-44.45494c0-3.89338-.54277-7.07394-1.62832-9.5412-1.08657-2.46776-3.59212-3.61203-7.51868-3.43383v-.66941h12.35974l49.25975,52.45309v-46.38657c0-2.49738-.44627-4.02154-1.33881-4.57146-.89254-.55043-2.03783-.82565-3.43536-.82565v-.66941Z"></path>
    </g>
  </g>
</svg>